<svg xmlns="http://www.w3.org/2000/svg" width="158" height="75.691" viewBox="0 0 158 75.691">
    <defs>
        <clipPath id="ar6uhy7jra">
            <path data-name="사각형 2064" style="fill:#666" d="M0 0h158v12.688H0z"/>
        </clipPath>
        <clipPath id="t4qpdcxf5b">
            <path data-name="사각형 2065" style="fill:#666" d="M0 0h122.277v33.691H0z"/>
        </clipPath>
    </defs>
    <g data-name="그룹 2140">
        <g data-name="그룹 2137">
            <g data-name="그룹 2136" style="clip-path:url(#ar6uhy7jra)">
                <path data-name="패스 2317" d="M0 6.336A6.154 6.154 0 0 1 6.351 0a5.765 5.765 0 0 1 5.927 4.355h-1.617a4.19 4.19 0 0 0-4.28-2.889 4.658 4.658 0 0 0-4.794 4.87 4.676 4.676 0 0 0 4.794 4.869 4.333 4.333 0 0 0 4.4-3.055H12.4a5.906 5.906 0 0 1-6.048 4.521A6.154 6.154 0 0 1 0 6.336" transform="translate(0 .001)" style="fill:#666"/>
                <path data-name="패스 2318" d="M13.035 10.9h6.654v1.437h-8.241V.228h1.587z" transform="translate(2.986 .06)" style="fill:#666"/>
                <path data-name="사각형 2063" transform="translate(24.466 .287)" style="fill:#666" d="M0 0h1.587v12.113H0z"/>
                <path data-name="패스 2319" d="M22.308 6.336A6.154 6.154 0 0 1 28.659 0a5.765 5.765 0 0 1 5.927 4.355h-1.617a4.19 4.19 0 0 0-4.279-2.889 4.658 4.658 0 0 0-4.79 4.87 4.676 4.676 0 0 0 4.794 4.869 4.333 4.333 0 0 0 4.4-3.055h1.618a5.906 5.906 0 0 1-6.048 4.521 6.154 6.154 0 0 1-6.351-6.336" transform="translate(5.819 .001)" style="fill:#666"/>
                <path data-name="패스 2320" d="m37.52 6.942-2.178 2.42v2.979h-1.587V.228h1.587v6.987L41.559.228h1.98l-4.99 5.564 5.337 6.549H41.86z" transform="translate(8.805 .06)" style="fill:#666"/>
                <path data-name="패스 2321" d="M51.806 1.649V12.34h-1.587V1.649h-4.355V.229h10.282v1.42z" transform="translate(11.964 .06)" style="fill:#666"/>
                <path data-name="패스 2322" d="M54.419 6.336a6.389 6.389 0 0 1 12.778 0 6.389 6.389 0 0 1-12.778 0m11.19 0a4.8 4.8 0 1 0-9.6 0 4.8 4.8 0 1 0 9.6 0" transform="translate(14.196 .001)" style="fill:#666"/>
                <path data-name="패스 2323" d="M71.03.228v6.9c0 2.435 1.407 4.052 3.7 4.052s3.689-1.618 3.689-4.052v-6.9h1.589v6.9c0 3.326-2.072 5.5-5.278 5.5s-5.292-2.178-5.292-5.5v-6.9z" transform="translate(18.115 .06)" style="fill:#666"/>
                <path data-name="패스 2324" d="M84.057.229c3.146 0 4.99 1.677 4.99 4.2s-1.845 4.2-4.99 4.2h-2.708v3.7h-1.586V.229zm3.4 4.2c0-1.8-1.33-2.768-3.523-2.768h-2.585V7.2h2.587c2.193 0 3.523-.967 3.523-2.766" transform="translate(20.807 .06)" style="fill:#666"/>
                <path data-name="패스 2325" d="M90.111 10.9h6.654v1.437h-8.242V.228h1.587z" transform="translate(23.092 .06)" style="fill:#666"/>
                <path data-name="패스 2326" d="M95.615 6.336a6.39 6.39 0 0 1 12.779 0 6.39 6.39 0 0 1-12.779 0m11.19 0a4.8 4.8 0 1 0-9.6 0 4.8 4.8 0 1 0 9.6 0" transform="translate(24.942 .001)" style="fill:#666"/>
                <path data-name="패스 2327" d="M114.847 9.347h-5.823l-1.21 2.995h-1.662L111.141.228h1.678l4.975 12.113h-1.739zm-.56-1.406-2.344-5.853-2.359 5.853z" transform="translate(27.691 .06)" style="fill:#666"/>
                <path data-name="패스 2328" d="M120.969.228c4.175 0 6.593 2.45 6.593 6.065s-2.418 6.048-6.593 6.048h-4.294V.228zm4.99 6.065c0-2.949-1.875-4.642-4.945-4.642h-2.751V10.9h2.751c3.07 0 4.945-1.664 4.945-4.612" transform="translate(30.436 .06)" style="fill:#666"/>
            </g>
        </g>
        <g data-name="그룹 2139">
            <g data-name="그룹 2138" style="clip-path:url(#t4qpdcxf5b)" transform="translate(17.861 42)">
                <path data-name="패스 2329" d="M23.244 7.41a27.684 27.684 0 0 1-3.39.434v4.441h-1.442V7.929a93.719 93.719 0 0 1-3.292.055l-.168-1.19a58.89 58.89 0 0 0 8.194-.448zm-7.438-4.2c0-1.555 1.373-2.647 3.264-2.647s3.263 1.092 3.263 2.647-1.372 2.66-3.263 2.66-3.264-1.093-3.264-2.662m1.387 0c0 .9.785 1.471 1.877 1.471s1.877-.574 1.877-1.471c0-.882-.771-1.457-1.877-1.457s-1.877.575-1.877 1.457m8.223 9.469h-1.443V.014h1.443z" style="fill:#666"/>
                <path data-name="패스 2330" d="M33.323 7.242a4.18 4.18 0 0 1-2.312-2.3 4.578 4.578 0 0 1-2.465 2.647l-.756-1.103a4.111 4.111 0 0 0 2.479-3.81v-.505H28.1V1.009h5.6v1.162h-2.016v.505a3.7 3.7 0 0 0 2.353 3.446zm1.666 1.037c0 1.485 1.723 2.871 4.161 3.207l-.533 1.135a6.019 6.019 0 0 1-4.342-2.535 6.047 6.047 0 0 1-4.357 2.535l-.532-1.135c2.452-.336 4.161-1.722 4.161-3.207V7.9h1.442zm-.266-5.029V.238h1.345v7.13h-1.345V4.441h-1.639V3.25zm3.81 5.25H37.16V.028h1.373z" style="fill:#666"/>
                <path data-name="패스 2331" d="M52.156 6.458H40.7V5.31h11.456zM41.916 2.4c0-1.415 1.667-2.185 4.511-2.185s4.51.77 4.51 2.185-1.681 2.171-4.51 2.171S41.916 3.8 41.916 2.4m1.6 9.049h7.564v1.106h-8.996V9.372H49.3v-.911h-7.244V7.369h8.657V10.4h-7.2zm-.1-9.049c0 .714 1.05 1.093 3.012 1.093s3.01-.383 3.01-1.093-1.05-1.11-3.011-1.11-3.012.377-3.012 1.106" style="fill:#666"/>
                <path data-name="패스 2332" d="M68.927 5.057V6.2h-11.4V5.057h8.306a10.767 10.767 0 0 0 .21-1.359l-7.256.308-.169-1.106 7.494-.224c.014-.351.014-.673.014-1h-7.172V.546h8.587v1.023a17.241 17.241 0 0 1-.266 3.488zm-8.67 6.331h7.816v1.121h-9.231V9.273h7.368v-.952h-7.4V7.2h8.825v3.124h-7.378z" style="fill:#666"/>
                <path data-name="패스 2333" d="M78.222 6.752a35.9 35.9 0 0 1-6.121.392h-1.065V3.32h4.342V1.891h-4.37V.729h5.784v3.684h-4.327v1.554a34.521 34.521 0 0 0 5.589-.378zm-5.939 1.639h8.531v4.286h-1.443v-3.11h-7.088zm8.531-.617h-1.443V0h1.443z" style="fill:#666"/>
                <path data-name="패스 2334" d="M87.656 1.962h2.955v1.176H83.2V1.962h3.011V.2h1.443zm2.438 5.028a3.144 3.144 0 1 1-3.138-2.956 2.943 2.943 0 0 1 3.138 2.956m-1.373 0a1.765 1.765 0 1 0-3.53 0 1.765 1.765 0 1 0 3.53 0m6.318-.69h-1.947v6.374h-1.457V.014h1.457V5.1h1.947z" style="fill:#666"/>
                <path data-name="패스 2335" d="M106.658 0v12.691H105.2v-4.8h-2.914a2.956 2.956 0 0 1-2.732 1.976c-1.862 0-3.194-1.723-3.194-4.469 0-2.717 1.332-4.454 3.194-4.454a2.954 2.954 0 0 1 2.662 1.793h2.984V0zm-5.268 5.393c0-1.961-.742-3.152-1.835-3.152s-1.834 1.191-1.834 3.152c0 1.99.755 3.18 1.834 3.18s1.835-1.19 1.835-3.18M105.2 6.7V3.923h-2.592a6.965 6.965 0 0 1 .154 1.47 7.426 7.426 0 0 1-.112 1.3z" style="fill:#666"/>
                <path data-name="패스 2336" d="M11.4 27.612v1.163H0v-1.163h4.454v-1.7h1.457v1.7zM8.6 23.9c.014-.393.014-.785.014-1.177h-7.3V21.56h8.727v1.135a18.957 18.957 0 0 1-.35 4.174l-1.429-.112a15.673 15.673 0 0 0 .266-1.779L1.19 25.3l-.2-1.19zm-5.757 8.4h7.438v1.163H1.4v-3.722h1.443z" style="fill:#666"/>
                <path data-name="패스 2337" d="M18.833 28.228a23.518 23.518 0 0 1-4.608.309H13.4v-6.5h4.777V23.2h-3.39v1.485H17.7v1.121h-2.915v1.582a20.315 20.315 0 0 0 3.908-.307zm5.084 4.021v1.176h-8.642v-3.964h1.457v2.788zm-4.16-6.542h-1.5V24.53h1.5v-3.264H21.1v8.923h-1.343zm3.81 4.791h-1.373v-9.483h1.373z" style="fill:#666"/>
                <path data-name="패스 2338" d="M37.2 32.122H25.746v-1.191H37.2zM26.292 27.85c2.633-.393 4.37-1.976 4.44-3.769h-3.964v-1.176h3.979v-1.639h1.442v1.639h3.964v1.176H32.2c.07 1.793 1.807 3.376 4.441 3.769l-.541 1.19a6.407 6.407 0 0 1-4.636-2.913 6.408 6.408 0 0 1-4.623 2.913z" style="fill:#666"/>
                <path data-name="패스 2339" d="M50.084 27.879H38.612v-1.065h11.472zm-8.684 4.65h7.662v.994H39.97v-2.9h7.284v-.9h-7.312v-.995h8.741v2.83H41.4zm5.813-10.212h-7.159v-.995h8.587v2.788H41.5v.9h7.368v1.009h-8.785v-2.848h7.129z" style="fill:#666"/>
                <path data-name="패스 2340" d="M66.856 29.811h-5v3.88h-1.443v-3.88h-4.987v-1.19h11.43zM56.084 26.66c2.452-.3 4.188-1.625 4.314-2.984H56.5v-1.162h3.909v-1.5h1.442v1.5h3.922v1.162h-3.904c.127 1.344 1.863 2.689 4.315 2.984l-.518 1.134a6.308 6.308 0 0 1-4.539-2.465 6.3 6.3 0 0 1-4.539 2.465z" style="fill:#666"/>
                <path data-name="패스 2341" d="M74.791 22.345a9.515 9.515 0 0 1-5.7 9.007l-.8-1.106c3.1-1.583 4.763-3.811 5.058-6.724h-4.427v-1.177zm5.225 4.861H78.1v6.443h-1.446V21H78.1v5h1.919z" style="fill:#666"/>
                <path data-name="패스 2342" d="M85.57 22.961h2.955v1.177h-7.409v-1.177h3.011V21.2h1.443zm2.438 5.029a3.144 3.144 0 1 1-3.138-2.956 2.943 2.943 0 0 1 3.138 2.956m-1.373 0a1.765 1.765 0 1 0-1.765 1.765 1.684 1.684 0 0 0 1.765-1.765m6.318-.687h-1.947v6.374h-1.457V21.014h1.457V26.1h1.947z" style="fill:#666"/>
                <path data-name="패스 2343" d="M97.946 24.39a6.116 6.116 0 0 0 2.465 5.253l-.812 1.12a5.765 5.765 0 0 1-2.34-3.347 6.1 6.1 0 0 1-2.494 3.628l-.882-1.093a6.326 6.326 0 0 0 2.661-5.49v-2.284h1.4zm2.97-3.137h1.358v11.822h-1.358v-6.457h-1.864v-1.177h1.864zm3.949 12.41h-1.372V21.015h1.372z" style="fill:#666"/>
                <path data-name="패스 2344" d="M118.4 30.931v1.177h-11.454v-1.177h2.675V27.64a2.911 2.911 0 0 1-1.611-2.592c0-2.017 1.948-3.305 4.652-3.305 2.689 0 4.65 1.288 4.65 3.305a2.926 2.926 0 0 1-1.612 2.592v3.291zm-8.992-5.883c0 1.345 1.33 2.186 3.25 2.186 1.9 0 3.234-.841 3.234-2.186s-1.33-2.171-3.234-2.171c-1.92 0-3.25.84-3.25 2.171m1.652 5.883h3.193v-2.759a6.479 6.479 0 0 1-1.6.182 7.26 7.26 0 0 1-1.6-.168z" style="fill:#666"/>
                <path data-name="패스 2345" d="M120.12 31.646a1.081 1.081 0 1 1 2.157 0 1.079 1.079 0 1 1-2.157 0" style="fill:#666"/>
            </g>
        </g>
    </g>
</svg>
